<svg xmlns="http://www.w3.org/2000/svg" width="400" height="288" viewBox="0 0 400 288">
<rect width="400" height="288" fill="#0c0c0c"/>
<style>text { font-family: "Courier New", Courier, monospace; dominant-baseline: central; text-anchor: middle; }</style>
<rect x="250" y="36" width="10" height="18" fill="#336600"/>
<rect x="300" y="36" width="10" height="18" fill="#336600"/>
<rect x="310" y="36" width="10" height="18" fill="#336600"/>
<rect x="230" y="54" width="10" height="18" fill="#336600"/>
<rect x="240" y="54" width="10" height="18" fill="#336600"/>
<rect x="250" y="54" width="10" height="18" fill="#336600"/>
<rect x="260" y="54" width="10" height="18" fill="#336600"/>
<rect x="280" y="54" width="10" height="18" fill="#336600"/>
<rect x="290" y="54" width="10" height="18" fill="#336600"/>
<rect x="300" y="54" width="10" height="18" fill="#336600"/>
<rect x="260" y="72" width="10" height="18" fill="#336600"/>
<rect x="270" y="72" width="10" height="18" fill="#336600"/>
<rect x="280" y="72" width="10" height="18" fill="#336600"/>
<rect x="310" y="72" width="10" height="18" fill="#336600"/>
<rect x="230" y="90" width="10" height="18" fill="#336600"/>
<rect x="240" y="90" width="10" height="18" fill="#336600"/>
<rect x="250" y="90" width="10" height="18" fill="#336600"/>
<rect x="260" y="90" width="10" height="18" fill="#aa0000"/>
<rect x="270" y="90" width="10" height="18" fill="#336600"/>
<rect x="280" y="90" width="10" height="18" fill="#336600"/>
<rect x="290" y="90" width="10" height="18" fill="#336600"/>
<rect x="300" y="90" width="10" height="18" fill="#aa0000"/>
<rect x="310" y="90" width="10" height="18" fill="#aa0000"/>
<rect x="220" y="108" width="10" height="18" fill="#aa0000"/>
<rect x="230" y="108" width="10" height="18" fill="#336600"/>
<rect x="240" y="108" width="10" height="18" fill="#aa0000"/>
<rect x="250" y="108" width="10" height="18" fill="#aa0000"/>
<rect x="260" y="108" width="10" height="18" fill="#aa0000"/>
<rect x="270" y="108" width="10" height="18" fill="#aa0000"/>
<rect x="280" y="108" width="10" height="18" fill="#aa0000"/>
<rect x="290" y="108" width="10" height="18" fill="#aa0000"/>
<rect x="300" y="108" width="10" height="18" fill="#770000"/>
<rect x="310" y="108" width="10" height="18" fill="#770000"/>
<rect x="320" y="108" width="10" height="18" fill="#770000"/>
<rect x="170" y="126" width="10" height="18" fill="#aa0000"/>
<rect x="180" y="126" width="10" height="18" fill="#ff2222"/>
<rect x="190" y="126" width="10" height="18" fill="#ff2222"/>
<rect x="200" y="126" width="10" height="18" fill="#ff2222"/>
<rect x="210" y="126" width="10" height="18" fill="#aa0000"/>
<rect x="220" y="126" width="10" height="18" fill="#aa0000"/>
<rect x="230" y="126" width="10" height="18" fill="#aa0000"/>
<rect x="240" y="126" width="10" height="18" fill="#aa0000"/>
<rect x="250" y="126" width="10" height="18" fill="#aa0000"/>
<rect x="260" y="126" width="10" height="18" fill="#ff9999"/>
<text x="275" y="135" font-size="22" fill="#f0f0f0">○</text>
<rect x="280" y="126" width="10" height="18" fill="#aa0000"/>
<rect x="290" y="126" width="10" height="18" fill="#aa0000"/>
<rect x="300" y="126" width="10" height="18" fill="#aa0000"/>
<rect x="310" y="126" width="10" height="18" fill="#770000"/>
<rect x="320" y="126" width="10" height="18" fill="#770000"/>
<rect x="330" y="126" width="10" height="18" fill="#770000"/>
<rect x="340" y="126" width="10" height="18" fill="#770000"/>
<rect x="160" y="144" width="10" height="18" fill="#aa0000"/>
<rect x="170" y="144" width="10" height="18" fill="#aa0000"/>
<rect x="180" y="144" width="10" height="18" fill="#ff2222"/>
<text x="195" y="153" font-size="22" fill="#f0f0f0">○</text>
<text x="205" y="153" font-size="22" fill="#f0f0f0">○</text>
<text x="215" y="153" font-size="22" fill="#f0f0f0">○</text>
<rect x="220" y="144" width="10" height="18" fill="#ff9999"/>
<rect x="230" y="144" width="10" height="18" fill="#aa0000"/>
<rect x="240" y="144" width="10" height="18" fill="#aa0000"/>
<text x="255" y="153" font-size="22" fill="#f0f0f0">○</text>
<text x="265" y="153" font-size="22" fill="#f0f0f0">○</text>
<rect x="270" y="144" width="10" height="18" fill="#aa0000"/>
<rect x="280" y="144" width="10" height="18" fill="#aa0000"/>
<rect x="290" y="144" width="10" height="18" fill="#770000"/>
<rect x="300" y="144" width="10" height="18" fill="#770000"/>
<rect x="310" y="144" width="10" height="18" fill="#770000"/>
<rect x="320" y="144" width="10" height="18" fill="#770000"/>
<rect x="160" y="162" width="10" height="18" fill="#aa0000"/>
<rect x="170" y="162" width="10" height="18" fill="#aa0000"/>
<rect x="180" y="162" width="10" height="18" fill="#aa0000"/>
<rect x="190" y="162" width="10" height="18" fill="#ff2222"/>
<rect x="200" y="162" width="10" height="18" fill="#ff9999"/>
<text x="215" y="171" font-size="22" fill="#f0f0f0">○</text>
<text x="225" y="171" font-size="22" fill="#f0f0f0">○</text>
<text x="235" y="171" font-size="22" fill="#f0f0f0">○</text>
<rect x="240" y="162" width="10" height="18" fill="#ff9999"/>
<text x="255" y="171" font-size="22" fill="#f0f0f0">○</text>
<rect x="260" y="162" width="10" height="18" fill="#aa0000"/>
<rect x="270" y="162" width="10" height="18" fill="#aa0000"/>
<rect x="280" y="162" width="10" height="18" fill="#770000"/>
<rect x="290" y="162" width="10" height="18" fill="#770000"/>
<rect x="170" y="180" width="10" height="18" fill="#770000"/>
<rect x="180" y="180" width="10" height="18" fill="#770000"/>
<rect x="190" y="180" width="10" height="18" fill="#aa0000"/>
<rect x="200" y="180" width="10" height="18" fill="#aa0000"/>
<text x="215" y="189" font-size="22" fill="#f0f0f0">○</text>
<rect x="220" y="180" width="10" height="18" fill="#aa0000"/>
<rect x="230" y="180" width="10" height="18" fill="#770000"/>
<rect x="240" y="180" width="10" height="18" fill="#770000"/>
<rect x="250" y="180" width="10" height="18" fill="#770000"/>
<rect x="260" y="180" width="10" height="18" fill="#770000"/>
<rect x="270" y="180" width="10" height="18" fill="#770000"/>
<rect x="280" y="180" width="10" height="18" fill="#770000"/>
<rect x="180" y="198" width="10" height="18" fill="#770000"/>
<rect x="190" y="198" width="10" height="18" fill="#770000"/>
<rect x="200" y="198" width="10" height="18" fill="#770000"/>
<rect x="210" y="198" width="10" height="18" fill="#770000"/>
<rect x="220" y="198" width="10" height="18" fill="#770000"/>
<rect x="230" y="198" width="10" height="18" fill="#770000"/>
<rect x="240" y="198" width="10" height="18" fill="#770000"/>
<rect x="250" y="198" width="10" height="18" fill="#770000"/>
<rect x="260" y="198" width="10" height="18" fill="#770000"/>
<rect x="210" y="216" width="10" height="18" fill="#770000"/>
<rect x="220" y="216" width="10" height="18" fill="#770000"/>
<rect x="230" y="216" width="10" height="18" fill="#770000"/>
<rect x="240" y="216" width="10" height="18" fill="#770000"/>
</svg>