<svg xmlns="http://www.w3.org/2000/svg" width="640" height="256" viewBox="0 0 640 256">
<rect width="640" height="256" fill="#0c0c0c"/>
<style>text { font-family: "Courier New", Courier, monospace; dominant-baseline: central; text-anchor: middle; }</style>
<rect x="80" y="16" width="16" height="16" fill="#559900"/>
<rect x="96" y="16" width="16" height="16" fill="#559900"/>
<text x="120" y="24" font-size="19" fill="#559900">▐</text>
<rect x="128" y="16" width="16" height="16" fill="#559900"/>
<rect x="144" y="16" width="16" height="16" fill="#559900"/>
<rect x="96" y="32" width="16" height="16" fill="#559900"/>
<rect x="112" y="32" width="16" height="16" fill="#559900"/>
<rect x="128" y="32" width="16" height="16" fill="#559900"/>
<text x="152" y="40" font-size="19" fill="#559900">▐</text>
<rect x="160" y="32" width="16" height="16" fill="#770000"/>
<rect x="64" y="48" width="16" height="16" fill="#770000"/>
<rect x="80" y="48" width="16" height="16" fill="#770000"/>
<rect x="96" y="48" width="16" height="16" fill="#aa0000"/>
<rect x="112" y="48" width="16" height="16" fill="#aa0000"/>
<rect x="128" y="48" width="16" height="16" fill="#aa0000"/>
<rect x="144" y="48" width="16" height="16" fill="#ff2222"/>
<rect x="160" y="48" width="16" height="16" fill="#770000"/>
<rect x="64" y="64" width="16" height="16" fill="#770000"/>
<rect x="80" y="64" width="16" height="16" fill="#aa0000"/>
<text x="104" y="72" font-size="19" fill="#e0b870">•</text>
<rect x="112" y="64" width="16" height="16" fill="#aa0000"/>
<rect x="128" y="64" width="16" height="16" fill="#aa0000"/>
<text x="152" y="72" font-size="19" fill="#e0b870">•</text>
<rect x="160" y="64" width="16" height="16" fill="#ff2222"/>
<rect x="176" y="64" width="16" height="16" fill="#770000"/>
<rect x="48" y="80" width="16" height="16" fill="#770000"/>
<rect x="64" y="80" width="16" height="16" fill="#770000"/>
<rect x="80" y="80" width="16" height="16" fill="#aa0000"/>
<text x="104" y="88" font-size="19" fill="#e0b870">•</text>
<text x="120" y="88" font-size="19" fill="#e0b870">•</text>
<rect x="128" y="80" width="16" height="16" fill="#aa0000"/>
<text x="152" y="88" font-size="19" fill="#e0b870">•</text>
<rect x="160" y="80" width="16" height="16" fill="#ff2222"/>
<rect x="176" y="80" width="16" height="16" fill="#770000"/>
<rect x="48" y="96" width="16" height="16" fill="#770000"/>
<rect x="64" y="96" width="16" height="16" fill="#ff2222"/>
<rect x="80" y="96" width="16" height="16" fill="#aa0000"/>
<rect x="96" y="96" width="16" height="16" fill="#aa0000"/>
<rect x="112" y="96" width="16" height="16" fill="#770000"/>
<text x="136" y="104" font-size="19" fill="#e0b870">•</text>
<text x="152" y="104" font-size="19" fill="#e0b870">•</text>
<rect x="160" y="96" width="16" height="16" fill="#ff2222"/>
<rect x="176" y="96" width="16" height="16" fill="#770000"/>
<rect x="48" y="112" width="16" height="16" fill="#ff2222"/>
<rect x="64" y="112" width="16" height="16" fill="#ff2222"/>
<rect x="80" y="112" width="16" height="16" fill="#770000"/>
<rect x="96" y="112" width="16" height="16" fill="#770000"/>
<rect x="112" y="112" width="16" height="16" fill="#770000"/>
<rect x="128" y="112" width="16" height="16" fill="#aa0000"/>
<rect x="144" y="112" width="16" height="16" fill="#ff2222"/>
<rect x="80" y="128" width="16" height="16" fill="#770000"/>
<rect x="96" y="128" width="16" height="16" fill="#aa0000"/>
</svg>